<svg width="1360" height="177" viewBox="0 0 1360 177" fill="none" xmlns="http://www.w3.org/2000/svg">
<g filter="url(#filter0_d_272_317)">
<g clip-path="url(#clip0_272_317)">
<path d="M981.527 73.3369L916.015 7.5916C915.384 6.97261 914.95 6.17837 914.776 5.31151C914.601 4.44463 914.686 3.54484 915.029 2.72828C915.367 1.91172 915.941 1.21588 916.685 0.730547C917.423 0.24522 918.29 -0.00730828 919.174 0.00555334H984.9C985.486 -0.0247182 986.077 0.0690163 986.629 0.280694C987.175 0.492371 987.676 0.817277 988.093 1.23439C988.51 1.6515 988.836 2.15153 989.05 2.70213C989.259 3.25273 989.354 3.84163 989.321 4.43074V70.1766C989.281 71.06 988.983 71.9123 988.476 72.6339C987.963 73.355 987.254 73.9149 986.437 74.2473C985.615 74.5797 984.72 74.6704 983.847 74.5092C982.98 74.3481 982.174 73.9414 981.527 73.3369Z" fill="#84BD24"/>
<path d="M74.0184 3.79896C74.2291 1.69172 76.3357 0.00593786 78.2316 0.00593786H82.0234C83.2874 0.00593786 85.3939 0.84883 86.0259 2.3239L140.375 103.682H140.797L195.357 2.3239C195.989 0.84883 198.096 0.00593786 199.359 0.00593786H203.151C205.047 0.00593786 207.153 1.69172 207.364 3.79896L233.907 161.631C234.328 164.581 232.222 166.688 229.483 166.688H201.677C199.57 166.688 197.463 164.792 197.252 162.895L186.72 90.4063H186.299L146.695 166.477C146.063 167.952 143.957 169.006 142.693 169.006H138.479C137.005 169.006 135.109 167.742 134.477 166.477L94.8735 90.4063H94.4522L84.13 162.895C83.9193 164.792 82.0234 166.688 79.7062 166.688H51.8995C49.1609 166.688 47.0544 164.581 47.4757 161.631L74.0184 3.79896ZM265.084 5.48474C265.084 3.16678 267.191 1.05956 269.508 1.05956H297.736C300.053 1.05956 302.16 3.16678 302.16 5.48474V162.263C302.16 164.581 300.053 166.688 297.736 166.688H269.508C267.191 166.688 265.084 164.581 265.084 162.263V5.48474ZM416.547 0.00593786C439.929 0.00593786 457.414 7.38124 473.424 21.9212C475.53 23.8177 475.53 26.5571 473.634 28.4536L455.307 47.4186C454.52 48.1909 453.461 48.6234 452.358 48.6234C451.256 48.6234 450.197 48.1909 449.409 47.4186C440.763 39.5782 429.479 35.2889 417.81 35.4074C391.268 35.4074 371.887 57.5335 371.887 83.6632C371.719 89.839 372.786 95.9861 375.026 101.743C377.266 107.501 380.635 112.752 384.933 117.189C389.231 121.626 394.372 125.158 400.054 127.58C405.736 130 411.845 131.261 418.021 131.286C429.506 131.584 440.692 127.604 449.409 120.118C451.094 118.643 454.043 118.643 455.518 120.329L473.845 139.715C475.53 141.401 475.32 144.351 473.634 146.037C461.638 157.243 446.631 164.7 430.456 167.493C414.282 170.285 397.644 168.291 382.586 161.756C367.529 155.221 354.707 144.429 345.696 130.705C336.685 116.982 331.877 100.925 331.863 84.5059C331.834 73.3835 334.008 62.3658 338.256 52.0874C342.504 41.809 348.744 32.4733 356.617 24.6185C364.488 16.7636 373.837 10.5448 384.122 6.3206C394.408 2.09642 405.428 -0.0497089 416.547 0.00593786ZM574.118 72.4945C583.808 72.4945 592.024 64.698 592.024 53.7404C592.024 42.7827 583.808 35.8289 574.118 35.8289H539.36V72.4945H574.118ZM502.494 6.74907C502.494 4.43112 504.39 2.3239 506.918 2.3239H577.067C589.167 1.97849 600.984 6.02395 610.335 13.7134C619.687 21.4028 625.938 32.2169 627.943 44.1589C629.948 56.101 627.56 68.3647 621.23 78.6856C614.9 89.0058 605.049 96.6869 593.498 100.31L625.73 159.945C627.414 162.895 625.73 166.688 621.726 166.688H590.549C588.653 166.688 587.178 165.424 586.757 164.581L555.58 102.418H539.36V162.263C539.36 164.581 537.253 166.688 534.935 166.688H506.918C504.39 166.688 502.494 164.581 502.494 162.263V6.74907ZM735.692 131.497C741.858 131.497 747.968 130.282 753.667 127.92C759.367 125.559 764.548 122.097 768.906 117.734C773.271 113.37 776.729 108.19 779.094 102.489C781.454 96.7877 782.67 90.6767 782.67 84.5059C782.67 78.3352 781.454 72.2241 779.094 66.5232C776.729 60.8217 773.271 55.6416 768.906 51.2781C764.548 46.9146 759.367 43.4532 753.667 41.0917C747.968 38.7301 741.858 37.5147 735.692 37.5147C729.525 37.5147 723.415 38.7301 717.716 41.0917C712.016 43.4532 706.835 46.9146 702.477 51.2781C698.112 55.6416 694.654 60.8217 692.289 66.5232C689.929 72.2241 688.713 78.3352 688.713 84.5059C688.713 90.6767 689.929 96.7877 692.289 102.489C694.654 108.19 698.112 113.37 702.477 117.734C706.835 122.097 712.016 125.559 717.716 127.92C723.415 130.282 729.525 131.497 735.692 131.497ZM735.692 0.00593786C746.808 -0.0220072 757.824 2.15157 768.101 6.40138C778.373 10.6512 787.71 16.8932 795.561 24.7677C803.411 32.6422 809.628 41.9933 813.852 52.2823C818.076 62.5714 820.221 73.5947 820.165 84.7166C820.165 131.708 782.67 169.006 735.692 169.006C688.713 169.006 651.427 131.708 651.427 84.7166C651.376 73.6122 653.51 62.6063 657.723 52.3311C661.929 42.056 668.13 32.7142 675.958 24.8425C683.791 16.9708 693.1 10.7244 703.349 6.46216C713.599 2.19989 724.592 0.00579905 735.692 0.00593786ZM1112.56 110.425L1094.86 71.6518H1094.65L1076.96 110.425H1112.56ZM1016.28 160.577L1089.8 2.53462C1090.44 1.05956 1092.12 0.00593786 1093.81 0.00593786H1096.13C1097.81 0.00593786 1099.5 1.27028 1100.13 2.53462L1173.65 160.577C1175.12 163.527 1173.22 166.688 1169.64 166.688H1143.52C1139.31 166.688 1137.41 165.213 1135.31 160.788L1126.88 142.244H1062.84L1054.42 160.999C1053.15 163.738 1050.63 166.688 1045.99 166.688H1020.08C1019.36 166.693 1018.64 166.513 1018.01 166.164C1017.38 165.815 1016.85 165.31 1016.47 164.696C1016.09 164.083 1015.87 163.382 1015.84 162.661C1015.81 161.939 1015.96 161.222 1016.28 160.577ZM1271.82 4.85257C1272.23 3.58823 1273.92 2.3239 1275.81 2.3239H1306.99C1310.57 2.3239 1312.47 5.27402 1310.99 8.43485L1249.7 139.715L1237.27 166.477C1236.93 167.251 1236.37 167.906 1235.66 168.357C1234.94 168.808 1234.11 169.034 1233.26 169.006H1230.95C1229.05 169.006 1227.57 167.742 1226.94 166.477L1153.63 8.43485C1152.16 5.48474 1154.05 2.3239 1157.64 2.3239H1188.81C1190.71 2.3239 1192.39 3.79896 1192.82 4.85257L1231.58 90.617H1233.05L1271.82 4.85257Z" fill="white"/>
<path d="M987.007 124.753L985.323 123.068L885.048 25.5029L862.088 3.58766C860.19 1.69116 858.506 0.00537109 856.192 0.00537109H852.61C850.29 0.00537109 848.184 1.90188 848.184 4.21984L848.392 162.262C848.392 164.58 850.504 166.687 852.818 166.687H880.627C883.155 166.687 885.048 164.58 885.048 162.262V74.6014H885.262L976.054 166.477C977.946 168.373 979.635 169.005 981.95 169.005H984.27C986.585 169.005 988.691 167.531 988.691 164.791V128.968C988.691 126.439 987.007 124.753 987.007 124.753Z" fill="white"/>
</g>
</g>
<defs>
<filter id="filter0_d_272_317" x="0" y="0" width="1359.57" height="177" filterUnits="userSpaceOnUse" color-interpolation-filters="sRGB">
<feFlood flood-opacity="0" result="BackgroundImageFix"/>
<feColorMatrix in="SourceAlpha" type="matrix" values="0 0 0 0 0 0 0 0 0 0 0 0 0 0 0 0 0 0 127 0" result="hardAlpha"/>
<feOffset dy="4"/>
<feGaussianBlur stdDeviation="2"/>
<feComposite in2="hardAlpha" operator="out"/>
<feColorMatrix type="matrix" values="0 0 0 0 0 0 0 0 0 0 0 0 0 0 0 0 0 0 0.25 0"/>
<feBlend mode="normal" in2="BackgroundImageFix" result="effect1_dropShadow_272_317"/>
<feBlend mode="normal" in="SourceGraphic" in2="effect1_dropShadow_272_317" result="shape"/>
</filter>
<clipPath id="clip0_272_317">
<rect width="1351.57" height="169" fill="white" transform="translate(4)"/>
</clipPath>
</defs>
</svg>
